<svg width="109" height="111" viewBox="0 0 109 111" fill="none" xmlns="http://www.w3.org/2000/svg">
<path d="M23.0037 84.0516V102.895H18.4137V91.5942L14.1995 102.895H10.4953L6.25421 91.5674V102.895H1.66421V84.0516H7.08632L12.3742 97.0968L17.6084 84.0516H23.0037ZM41.6044 87.9168L32.2097 110.008H27.2707L30.7065 102.385L24.6134 87.9168H29.7402L33.2028 97.2847L36.6386 87.9168H41.6044ZM48.174 93.4463C48.174 91.5853 48.5767 89.93 49.3819 88.4805C50.1872 87.0132 51.3056 85.8768 52.7372 85.0716C54.1867 84.2484 55.824 83.8368 57.6493 83.8368C59.8861 83.8368 61.8009 84.4274 63.3935 85.6084C64.9861 86.7895 66.0509 88.4 66.5877 90.44H61.5414C61.1656 89.6526 60.6288 89.0532 59.9309 88.6416C59.2509 88.23 58.4724 88.0242 57.5956 88.0242C56.1819 88.0242 55.0367 88.5163 54.1598 89.5005C53.283 90.4847 52.8446 91.8 52.8446 93.4463C52.8446 95.0926 53.283 96.4079 54.1598 97.3921C55.0367 98.3763 56.1819 98.8684 57.5956 98.8684C58.4724 98.8684 59.2509 98.6626 59.9309 98.2511C60.6288 97.8395 61.1656 97.24 61.5414 96.4526H66.5877C66.0509 98.4926 64.9861 100.103 63.3935 101.284C61.8009 102.447 59.8861 103.029 57.6493 103.029C55.824 103.029 54.1867 102.626 52.7372 101.821C51.3056 100.998 50.1872 99.8616 49.3819 98.4121C48.5767 96.9626 48.174 95.3074 48.174 93.4463ZM68.486 95.3789C68.486 93.84 68.7723 92.4889 69.3449 91.3258C69.9354 90.1626 70.7317 89.2679 71.7338 88.6416C72.736 88.0153 73.8544 87.7021 75.0891 87.7021C76.1449 87.7021 77.0665 87.9168 77.8538 88.3463C78.6591 88.7758 79.2765 89.3395 79.706 90.0374V87.9168H84.296V102.895H79.706V100.774C79.2586 101.472 78.6323 102.036 77.827 102.465C77.0396 102.895 76.1181 103.109 75.0623 103.109C73.8454 103.109 72.736 102.796 71.7338 102.17C70.7317 101.526 69.9354 100.622 69.3449 99.4589C68.7723 98.2779 68.486 96.9179 68.486 95.3789ZM79.706 95.4058C79.706 94.2605 79.3838 93.3568 78.7396 92.6947C78.1133 92.0326 77.3438 91.7016 76.4312 91.7016C75.5186 91.7016 74.7402 92.0326 74.096 92.6947C73.4696 93.3389 73.1565 94.2337 73.1565 95.3789C73.1565 96.5242 73.4696 97.4368 74.096 98.1168C74.7402 98.7789 75.5186 99.11 76.4312 99.11C77.3438 99.11 78.1133 98.7789 78.7396 98.1168C79.3838 97.4547 79.706 96.5511 79.706 95.4058ZM92.2066 90.4132C92.7435 89.59 93.4145 88.9458 94.2198 88.4805C95.025 87.9974 95.9198 87.7558 96.904 87.7558V92.6142H95.6424C94.4971 92.6142 93.6382 92.8647 93.0656 93.3658C92.4929 93.8489 92.2066 94.7079 92.2066 95.9426V102.895H87.6166V87.9168H92.2066V90.4132ZM107.446 99.0026V102.895H105.111C103.446 102.895 102.149 102.492 101.218 101.687C100.288 100.864 99.8226 99.5305 99.8226 97.6874V91.7284H97.9974V87.9168H99.8226V84.2663H104.413V87.9168H107.419V91.7284H104.413V97.7411C104.413 98.1884 104.52 98.5105 104.735 98.7074C104.949 98.9042 105.307 99.0026 105.808 99.0026H107.446Z" fill="#008ECC"/>
<path fill-rule="evenodd" clip-rule="evenodd" d="M37.7071 67.2412C39.1388 67.2412 40.3024 68.4049 40.3024 69.8365C40.3024 71.2682 39.1388 72.4284 37.7071 72.4284C36.2755 72.4284 35.1152 71.2682 35.1152 69.8365C35.1152 68.4049 36.2755 67.2412 37.7071 67.2412Z" stroke="#008ECC" stroke-width="5.08882" stroke-linecap="round" stroke-linejoin="round"/>
<path fill-rule="evenodd" clip-rule="evenodd" d="M75.8834 67.2412C77.315 67.2412 78.4787 68.4049 78.4787 69.8365C78.4787 71.2682 77.315 72.4284 75.8834 72.4284C74.4517 72.4284 73.2881 71.2682 73.2881 69.8365C73.2881 68.4049 74.4517 67.2412 75.8834 67.2412Z" stroke="#008ECC" stroke-width="5.08882" stroke-linecap="round" stroke-linejoin="round"/>
<path d="M21.8564 11.0258L28.9129 12.2471L32.18 51.1697C32.4446 54.3418 35.0942 56.7776 38.2764 56.7776H75.2958C78.3355 56.7776 80.9138 54.5453 81.3515 51.5327L84.571 29.2844C84.9679 26.5399 82.8408 24.0837 80.0691 24.0837H30.046" stroke="#008ECC" stroke-width="5.08882" stroke-linecap="round" stroke-linejoin="round"/>
<path d="M60.4502 36.6225H69.8577" stroke="#008ECC" stroke-width="5.08882" stroke-linecap="round" stroke-linejoin="round"/>
</svg>
